<svg t="1614359680413" class="icon" viewBox="0 0 1071 1024" version="1.1" xmlns="http://www.w3.org/2000/svg" p-id="3700" width="200" height="200"><path d="M579.584 276.622884m-188.249302 0a188.249302 188.249302 0 1 0 376.498604 0 188.249302 188.249302 0 1 0-376.498604 0Z" fill="#1afa29" p-id="3701"></path><path d="M252.832744 981.349209c-18.884465 0-37.76893-9.45414-50.009302-23.599628-13.240558-17.931907-17.003163-37.745116-12.288-55.677023 38.697674-196.298419 201.013581-345.421395 394.501953-361.472 4.715163-0.952558 8.477767-1.905116 12.264186-1.905116h35.863814c67.774512 5.23907 116.354977 15.12186 145.717582 29.672186 29.362605 14.550326 46.86586 23.861581 52.462139 27.909953 113.259163 64.178605 191.583256 175.556465 217.064186 305.771163 4.738977 18.884465 0 38.721488-14.145488 55.700837a70.346419 70.346419 0 0 1-51.914419 23.575814H252.832744z" fill="#1afa29" p-id="3702"></path><path d="M93.136372 1012.069209c-22.64707 0-45.317953-11.335442-60.034977-28.338604-15.860093-21.504-20.384744-45.29414-14.717023-66.821954 46.437209-235.615256 241.259163-414.60093 473.492837-433.842604 5.667721-1.14307 10.192372-2.28614 14.717024-2.28614h43.055627l-5.66772 56.653395h-22.64707c-9.073116 0-13.597767 0-20.408558 2.262326h-3.381582c-209.562791 14.717023-385.14307 175.580279-425.936372 389.667721-1.119256 5.667721-1.119256 13.597767 4.524651 19.265488l1.14307 2.262326c3.405395 4.524651 9.049302 6.786977 15.860093 6.786977h876.758326c6.810791 0 12.478512-2.262326 15.860093-6.786977 5.667721-6.786977 6.810791-13.573953 5.667721-21.527814-26.052465-140.454698-111.020651-259.405395-231.090605-327.370419-10.192372-6.786977-21.504-12.454698-31.720186-18.098604-3.381581-2.28614-6.786977-3.429209-10.192372-5.691535l-15.860093-6.786977 22.670884-50.961861 15.860093 6.786977c11.311628 4.524651 22.64707 11.311628 32.863255 15.860093l13.573954 6.786977c135.930047 77.03814 229.947535 210.70586 260.524651 367.020651 5.667721 22.64707 0 46.437209-16.979349 66.821954a84.444279 84.444279 0 0 1-62.297302 28.338604H93.136372z" fill="#1afa29" p-id="3703"></path><path d="M537.171349 528.788837c-142.717023 0-260.524651-117.807628-260.524651-260.524651 0-142.740837 117.807628-260.548465 260.524651-260.548465 142.740837 0 260.548465 117.807628 260.548465 260.524651 0 142.740837-118.950698 260.524651-260.524651 260.524651z m0-480.327442a219.231256 219.231256 0 0 0-219.755163 219.802791c0 121.189209 98.565953 219.731349 219.755163 219.731349 121.213023 0 219.778977-98.54214 219.778977-219.755163s-98.565953-219.755163-219.778977-219.755163z" fill="#1afa29" p-id="3704"></path><path d="M537.171349 534.432744a265.882791 265.882791 0 0 1-266.192372-266.192372A265.882791 265.882791 0 0 1 537.171349 2.048a265.882791 265.882791 0 0 1 266.216186 266.192372c0 147.265488-120.069953 266.192372-266.216186 266.192372z m0-521.049302c-140.454698 0-254.85693 114.402233-254.85693 254.85693s114.402233 254.880744 254.85693 254.880744c140.478512 0 254.880744-114.426047 254.880744-254.880744S677.64986 13.383442 537.171349 13.383442z m0 480.279814a225.28 225.28 0 0 1-225.39907-225.422884 225.28 225.28 0 0 1 225.39907-225.422884 225.28 225.28 0 0 1 225.422884 225.422884c0 124.594605-101.923721 225.422884-225.422884 225.422884z m0-439.510326c-117.807628 0-214.087442 96.279814-214.087442 214.087442s96.279814 214.087442 214.087442 214.087442c117.831442 0 214.087442-96.279814 214.087442-214.087442s-96.256-214.087442-214.087442-214.087442z" fill="#1afa29" p-id="3705"></path></svg>