<svg t="1614360193913" class="icon" viewBox="0 0 1024 1024" version="1.1" xmlns="http://www.w3.org/2000/svg" p-id="31755" width="64" height="64"><path d="M871.538 889.742H167.936c-18.204 0-36.409-9.102-48.242-22.755l-0.91-0.91c-11.833-16.385-15.474-35.5-10.923-52.793 37.32-189.327 193.878-333.142 380.473-348.616 4.551-0.91 8.192-1.82 11.833-1.82h34.589l-4.552 45.511H512c-7.282 0-10.923 0-16.384 1.82h-2.73C324.493 522.013 183.41 651.265 150.641 823.297c-0.91 4.551-0.91 10.923 3.64 15.474l0.91 1.82c2.732 3.641 7.283 5.462 12.744 5.462h704.512c5.461 0 10.012-1.82 12.743-5.462 4.551-5.461 5.461-10.922 4.551-17.294-20.935-112.868-89.202-208.44-185.685-263.054l-0.91-0.91c-7.282-4.552-16.384-9.103-24.576-13.654-2.731-1.82-5.462-2.73-8.192-4.55l-12.743-5.462 18.204-40.96 12.743 5.461c9.102 3.641 18.205 9.102 26.397 12.743l10.922 5.462c109.227 61.895 184.775 169.3 209.351 294.912 4.551 18.204 0 37.319-13.653 53.703-12.743 14.563-31.858 22.755-50.062 22.755z" fill="#515151" p-id="31756"></path><path d="M524.743 494.706c-114.688 0-209.351-94.663-209.351-209.351S410.055 76.004 524.743 76.004s209.351 94.663 209.351 209.35-95.573 209.352-209.35 209.352z m0-385.934c-98.304 0-176.583 79.189-176.583 176.583s79.19 176.583 176.583 176.583 176.583-79.19 176.583-176.583-79.19-176.583-176.583-176.583z" fill="#515151" p-id="31757"></path><path d="M524.743 499.257c-118.329 0-213.902-95.573-213.902-213.902S406.414 71.452 524.743 71.452s213.902 95.574 213.902 213.903-96.483 213.902-213.902 213.902z m0-418.702c-112.867 0-204.8 91.932-204.8 204.8s91.933 204.8 204.8 204.8 204.8-91.933 204.8-204.8-91.932-204.8-204.8-204.8z m0 385.934c-100.124 0-181.134-81.01-181.134-181.134s81.01-181.135 181.134-181.135c100.125 0 181.134 81.01 181.134 181.135s-81.92 181.134-181.134 181.134z m0-353.166c-94.663 0-172.032 77.369-172.032 172.032 0 94.663 77.369 172.032 172.032 172.032s172.032-77.37 172.032-172.032c0-94.663-77.369-172.032-172.032-172.032zM245.305 738.645c-1.82 0-4.551-0.91-6.372-1.82-6.371-3.641-9.102-11.833-5.461-18.205 80.1-155.648 253.952-184.775 261.234-185.685 7.282-0.91 14.563 3.641 15.474 10.923 0.91 7.282-3.641 14.563-10.923 15.474-1.82 0-167.481 28.216-241.209 171.121-2.73 5.462-7.282 8.192-12.743 8.192z m-30.948 79.19c-7.281 0-13.653-6.372-13.653-13.654 0-26.396 17.294-54.613 20.025-57.344 3.64-6.371 12.743-8.192 19.115-4.55 6.371 3.64 8.192 12.742 4.55 19.114-4.55 6.371-15.473 27.307-15.473 42.78-0.91 7.282-6.372 13.654-14.564 13.654z" fill="#515151" p-id="31758"></path></svg>